{"title":"Casshern (Kasshan) 2004 DVDRip Xvid BigPerm LKRG","uid":6902427,"size":903877922,"categoryP":"video","categoryS":"movies","magnet":"?xt=urn:btih:e25d100ad299e73b3066941b1b44f27ae5cc0964&amp;dn=Casshern+%28Kasshan%29+2004+DVDRip+Xvid+BigPerm+LKRG&amp;tr=udp%3A%2F%2Ftracker.openbittorrent.com%3A80&amp;tr=udp%3A%2F%2Fopen.demonii.com%3A1337&amp;tr=udp%3A%2F%2Ftracker.coppersurfer.tk%3A6969&amp;tr=udp%3A%2F%2Fexodus.desync.com%3A6969","seeders":5,"leechers":1,"uploader":".BONE.","files":2,"time":1324450871,"description":"Live-action sci-fi movie based on a 1973 Japanese animT of the same name (Shinzo\nNingen CasshGn). Theme song by Utada Hikaru.\n\n\nEncoded By .......: BigPerm\nRuntime ..........: 1h 56mn\nFile Size ........: 862 MB\nResolution .......: 640 x 272 &lt;a href=&quot;\nhttp://www.imdb.com/title/tt0405821/&quot; rel=&quot;nofollow&quot; target=&quot;_NEW&quot;&gt;\nhttp://www.imdb.com/title/tt0405821/&lt;/a&gt;\nGenre ............: Action,Sci-Fi\nLanguage .........: Japanese\nSubtitles ........: English\nVideo\nID : 0\nFormat : MPEG-4 Visual\nFormat profile : Advanced Simple@L5\nFormat settings, BVOP : Yes\nFormat settings, QPel : No\nFormat settings, GMC : No warppoints\nFormat settings, Matrix : Default (H.263)\nMuxing mode : Packed bitstream\nCodec ID : XVID\nCodec ID/Hint : XviD\nDuration : 1h 56mn\nBit rate : 800 Kbps\nWidth : 640 pixels\nHeight : 272 pixels\nDisplay aspect ratio : 2.35:1\nFrame rate : 23.976 fps\nColor space : YUV\nChroma subsampling : 4:2:0\nBit depth : 8 bits\nScan type : Progressive\nCompression mode : Lossy\nBits/(Pixel*Frame) : 0.192\nStream size : 667 MiB (77%)\nWriting library : XviD 64\nAudio\nID : 1\nFormat : AC-3\nFormat/Info : Audio Coding 3\nMode extension : CM (complete main)\nCodec ID : 2000\nDuration : 1h 56mn\nBit rate mode : Constant\nBit rate : 224 Kbps\nChannel(s) : 2 channels\nChannel positions : Front: L R\nSampling rate : 48.0 KHz\nBit depth : 16 bits\nCompression mode : Lossy\nStream size : 187 MiB (22%)\nAlignment : Split accross interleaves\nInterleave, duration : 42 ms (1.00 video frame)\nInterleave, preload duration : 500 ms","torrent":{"xt":"urn:btih:e25d100ad299e73b3066941b1b44f27ae5cc0964","amp;dn":"Casshern+%28Kasshan%29+2004+DVDRip+Xvid+BigPerm+LKRG","amp;tr":["udp%3A%2F%2Ftracker.openbittorrent.com%3A80","udp%3A%2F%2Fopen.demonii.com%3A1337","udp%3A%2F%2Ftracker.coppersurfer.tk%3A6969","udp%3A%2F%2Fexodus.desync.com%3A6969"],"infoHash":"e25d100ad299e73b3066941b1b44f27ae5cc0964","infoHashBuffer":{"type":"Buffer","data":[226,93,16,10,210,153,231,59,48,102,148,27,27,68,242,122,229,204,9,100]},"announce":[],"urlList":[]}}